<svg width="11" height="10" viewBox="0 0 11 10" fill="none" xmlns="http://www.w3.org/2000/svg">
<path d="M3.89695 4.44445C4.51184 4.44445 5.00485 3.94445 5.00485 3.33334C5.00485 2.72223 4.51184 2.22223 3.89695 2.22223C3.28761 2.22223 2.78905 2.72223 2.78905 3.33334C2.78905 3.94445 3.28761 4.44445 3.89695 4.44445ZM7.22066 4.44445C7.83554 4.44445 8.32856 3.94445 8.32856 3.33334C8.32856 2.72223 7.83554 2.22223 7.22066 2.22223C6.60577 2.22223 6.11276 2.72223 6.11276 3.33334C6.11276 3.94445 6.61131 4.44445 7.22066 4.44445ZM3.89695 5.11112C2.97185 5.11112 1.1272 5.57223 1.1272 6.50001V7.22223H6.66671V6.50001C6.66671 5.57223 4.82205 5.11112 3.89695 5.11112ZM7.22066 5.11112C7.08217 5.11112 6.92152 5.12223 6.75534 5.14445C7.19296 5.47778 7.49763 5.92223 7.49763 6.50001V7.22223H9.99041V6.50001C9.99041 5.57223 8.14576 5.11112 7.22066 5.11112Z" fill="black" fill-opacity="0.6"/>
</svg>
