<svg width="13" height="10" viewBox="0 0 13 10" fill="none" xmlns="http://www.w3.org/2000/svg">
<g clip-path="url(#clip0)">
<path d="M9.97404 4.54545C9.76495 2.65 8.2604 1.14545 6.36495 0.936364V0H5.45585V0.936364C3.5604 1.14545 2.05585 2.65 1.84676 4.54545H0.9104V5.45455H1.84676C2.05585 7.35 3.5604 8.85454 5.45585 9.06364V10H6.36495V9.06364C8.2604 8.85454 9.76495 7.35 9.97404 5.45455H10.9104V4.54545H9.97404ZM5.9104 8C4.15131 8 2.9104 6.75909 2.9104 5C2.9104 3.24091 4.15131 2 5.9104 2C7.66949 2 8.9104 3.24091 8.9104 5C8.9104 6.75909 7.66949 8 5.9104 8Z" fill="black" fill-opacity="0.6"/>
</g>
<defs>
<clipPath id="clip0">
<rect width="11.4493" height="10" fill="white" transform="translate(0.9104)"/>
</clipPath>
</defs>
</svg>
