<svg width="10" height="10" viewBox="0 0 10 10" fill="none" xmlns="http://www.w3.org/2000/svg">
<path d="M7.90022 2.50002H7.06929C7.06929 1.35002 6.13866 0.416687 4.99198 0.416687C3.8453 0.416687 2.91466 1.35002 2.91466 2.50002H2.08373C1.62672 2.50002 1.25696 2.87502 1.25696 3.33335L1.25281 8.33335C1.25281 8.79169 1.62672 9.16669 2.08373 9.16669H7.90022C8.35723 9.16669 8.73115 8.79169 8.73115 8.33335V3.33335C8.73115 2.87502 8.35723 2.50002 7.90022 2.50002ZM4.99198 1.25002C5.68165 1.25002 6.23837 1.80835 6.23837 2.50002H3.74559C3.74559 1.80835 4.30231 1.25002 4.99198 1.25002ZM4.99198 5.41669C3.8453 5.41669 2.91466 4.48335 2.91466 3.33335H3.74559C3.74559 4.02502 4.30231 4.58335 4.99198 4.58335C5.68165 4.58335 6.23837 4.02502 6.23837 3.33335H7.06929C7.06929 4.48335 6.13866 5.41669 4.99198 5.41669Z" fill="black" fill-opacity="0.6"/>
</svg>
