<svg width="11" height="10" viewBox="0 0 11 10" fill="none" xmlns="http://www.w3.org/2000/svg">
<path d="M5.40564 4.54167C4.46254 4.29583 4.15925 4.04167 4.15925 3.64583C4.15925 3.19167 4.57887 2.875 5.28101 2.875C6.02053 2.875 6.29474 3.22917 6.31966 3.75H7.23784C7.20875 3.03333 6.77252 2.375 5.9042 2.1625V1.25H4.65781V2.15C3.85181 2.325 3.20369 2.85 3.20369 3.65417C3.20369 4.61667 3.99722 5.09583 5.15637 5.375C6.19502 5.625 6.40276 5.99167 6.40276 6.37917C6.40276 6.66667 6.19918 7.125 5.28101 7.125C4.42515 7.125 4.08863 6.74167 4.04293 6.25H3.12891C3.17876 7.1625 3.86012 7.675 4.65781 7.84583V8.75H5.9042V7.85417C6.71435 7.7 7.35832 7.22917 7.35832 6.375C7.35832 5.19167 6.34875 4.7875 5.40564 4.54167Z" fill="black" fill-opacity="0.6"/>
</svg>
