<svg width="14" height="13" viewBox="0 0 14 13" fill="none" xmlns="http://www.w3.org/2000/svg">
<path fill-rule="evenodd" clip-rule="evenodd" d="M10.8079 3.13603C12.1648 3.75265 13.2594 4.81981 13.9008 6.15144L12.6935 6.71792C12.4264 6.22404 12.0852 5.76711 11.6768 5.36401C10.5877 4.28901 9.11057 3.68507 7.57035 3.68507C6.03013 3.68507 4.55299 4.28901 3.4639 5.36401C2.44063 6.37404 1.83866 7.72219 1.76963 9.14242C1.70522 7.75512 2.10747 6.38306 2.91746 5.24199C3.77462 4.03444 5.03399 3.16219 6.47598 2.77733C7.91796 2.39246 9.45106 2.51941 10.8079 3.13603Z" fill="url(#paint0_linear)"/>
<path d="M8.38268 9.04402C8.36142 9.06231 8.33039 9.06641 8.30464 9.05503C7.21579 8.57387 7.45184 8.49576 7.36801 7.62934C7.36485 7.59668 7.38408 7.56528 7.41525 7.55387L11.7352 5.97455C11.8109 5.9469 11.869 6.04342 11.8081 6.09574L8.38268 9.04402Z" fill="#828282"/>
<path d="M7.17759 8.82259C7.47611 9.21761 8.01871 9.3165 8.38951 9.04348C8.76031 8.77045 8.81891 8.2289 8.52038 7.83389C8.22186 7.43887 7.67926 7.33998 7.30846 7.613C6.93766 7.88603 6.87906 8.42758 7.17759 8.82259Z" fill="#828282"/>
<defs>
<linearGradient id="paint0_linear" x1="12.8947" y1="6.50001" x2="1.1822" y2="11.728" gradientUnits="userSpaceOnUse">
<stop/>
<stop offset="1" stop-color="#EFEFEF"/>
</linearGradient>
</defs>
</svg>
