<svg width="24" height="24" viewBox="0 0 24 24" fill="none" xmlns="http://www.w3.org/2000/svg">
<path d="M11.2501 1.878C10.6291 2.013 10.1101 2.544 9.9871 3.174C9.8821 3.732 10.0921 4.359 10.5091 4.725C10.8241 5.001 11.1751 5.13 11.6101 5.13C12.0871 5.13 12.4531 4.98 12.7861 4.647C13.2901 4.14 13.4041 3.375 13.0771 2.721C12.9481 2.469 12.6151 2.139 12.3601 2.016C12.0061 1.842 11.6281 1.794 11.2501 1.878Z" fill="white"/>
<path d="M15.924 5.87998C14.85 6.07498 14.097 6.97798 14.097 8.06998C14.097 9.08098 14.709 9.89998 15.69 10.203C16.014 10.305 16.596 10.305 16.92 10.203C17.904 9.89698 18.51 9.08098 18.51 8.06998C18.51 7.06498 17.901 6.24298 16.935 5.93998C16.698 5.86798 16.164 5.83498 15.924 5.87998Z" fill="white"/>
<path d="M11.3551 11.346C10.3831 11.436 9.56707 12.114 9.26407 13.08C9.20407 13.272 9.19507 13.368 9.19507 13.74C9.19507 13.98 9.20407 14.223 9.21907 14.283L9.24007 14.391L9.75906 14.409C10.6771 14.439 11.2291 14.535 12.684 14.91C13.761 15.189 13.632 15.198 13.809 14.835C14.004 14.442 14.085 13.98 14.04 13.539C13.947 12.636 13.446 11.934 12.624 11.553C12.231 11.37 11.8231 11.301 11.3551 11.346Z" fill="white"/>
<path d="M20.7151 12.243C20.4511 12.276 20.1721 12.393 19.8391 12.609C19.6771 12.714 19.3891 12.9 19.2001 13.02C19.0111 13.14 17.9191 13.86 16.7791 14.619L14.7001 15.996V16.38C14.7001 17.052 14.5621 17.559 14.3161 17.799C14.1421 17.97 13.4701 18.177 12.7591 18.285C12.2191 18.366 11.5231 18.423 10.8541 18.441L10.2061 18.459L10.1131 18.366C9.93605 18.189 10.0201 17.97 10.2931 17.913C10.3741 17.895 10.6501 17.88 10.8991 17.88C12.0091 17.88 13.3111 17.688 13.8001 17.451C14.0551 17.328 14.1451 17.064 14.1451 16.44V16.068L12.7771 15.717C11.0701 15.279 10.6471 15.204 9.68105 15.162C8.91005 15.129 7.97405 15.234 7.27505 15.435C6.61205 15.624 5.95505 15.933 5.66705 16.191C4.87205 16.899 1.80005 19.719 1.80005 19.737C1.80005 19.767 4.33805 22.113 4.43105 22.17C4.47905 22.2 4.67405 22.113 5.78105 21.558L7.07405 20.913L7.25105 20.94C8.19005 21.087 10.9201 21.231 13.1251 21.249L14.0251 21.255L14.2741 21.168C14.4931 21.093 14.5651 21.045 14.8951 20.769C16.2481 19.638 18.2461 17.502 20.5981 14.67C21.2521 13.884 22.1701 12.744 22.1701 12.717C22.1701 12.684 21.8131 12.45 21.6541 12.378C21.3691 12.252 21.0271 12.204 20.7151 12.243Z" fill="white"/>
</svg>
