
<svg width="24" height="24" viewBox="0 0 24 24" fill="none" xmlns="http://www.w3.org/2000/svg">
<path d="M20.1593 13.6071C20.1993 13.298 20.2293 12.9889 20.2293 12.6605C20.2293 12.3321 20.1993 12.0229 20.1593 11.7138L22.2693 10.12C22.4593 9.97506 22.5093 9.71425 22.3893 9.50173L20.3893 6.15945C20.2693 5.94694 19.9993 5.86966 19.7793 5.94694L17.2893 6.91291C16.7693 6.52652 16.2093 6.20775 15.5993 5.96625L15.2193 3.40641C15.1893 3.17458 14.9793 3.0007 14.7293 3.0007H10.7293C10.4793 3.0007 10.2693 3.17458 10.2393 3.40641L9.85933 5.96625C9.24933 6.20775 8.68933 6.53618 8.16933 6.91291L5.67933 5.94694C5.44933 5.86 5.18933 5.94694 5.06933 6.15945L3.06933 9.50173C2.93933 9.71425 2.99933 9.97506 3.18933 10.12L5.29933 11.7138C5.25933 12.0229 5.22933 12.3417 5.22933 12.6605C5.22933 12.9793 5.25933 13.298 5.29933 13.6071L3.18933 15.201C2.99933 15.3459 2.94933 15.6067 3.06933 15.8192L5.06933 19.1615C5.18933 19.374 5.45933 19.4513 5.67933 19.374L8.16933 18.4081C8.68933 18.7944 9.24933 19.1132 9.85933 19.3547L10.2393 21.9146C10.2693 22.1464 10.4793 22.3203 10.7293 22.3203H14.7293C14.9793 22.3203 15.1893 22.1464 15.2193 21.9146L15.5993 19.3547C16.2093 19.1132 16.7693 18.7848 17.2893 18.4081L19.7793 19.374C20.0093 19.461 20.2693 19.374 20.3893 19.1615L22.3893 15.8192C22.5093 15.6067 22.4593 15.3459 22.2693 15.201L20.1593 13.6071ZM12.7293 16.0414C10.7993 16.0414 9.22933 14.5248 9.22933 12.6605C9.22933 10.7961 10.7993 9.27956 12.7293 9.27956C14.6593 9.27956 16.2293 10.7961 16.2293 12.6605C16.2293 14.5248 14.6593 16.0414 12.7293 16.0414Z" fill="white"/>
</svg>
