<svg width="25" height="24" viewBox="0 0 25 24" fill="none" xmlns="http://www.w3.org/2000/svg">
<ellipse cx="12.1762" cy="12" rx="11.9653" ry="12" fill="#C4C4C4"/>
<path d="M14.1797 8.242V15.452C14.1797 16.2547 13.9324 16.8987 13.4377 17.384C12.9431 17.86 12.2897 18.098 11.4777 18.098C10.6564 18.098 9.99841 17.8553 9.50374 17.37C9.00908 16.8753 8.76174 16.2033 8.76174 15.354H10.0357C10.0451 15.83 10.1664 16.2173 10.3997 16.516C10.6424 16.8147 11.0017 16.964 11.4777 16.964C11.9537 16.964 12.3084 16.824 12.5417 16.544C12.7751 16.2547 12.8917 15.8907 12.8917 15.452V8.242H14.1797Z" fill="black"/>
</svg>
