<svg width="25" height="24" viewBox="0 0 25 24" fill="none" xmlns="http://www.w3.org/2000/svg">
<path d="M7.93937 4.08L6.5135 2.65C4.12043 4.48 2.54499 7.3 2.4054 10.5H4.39962C4.54919 7.85 5.90526 5.53 7.93937 4.08ZM20.2936 10.5H22.2878C22.1382 7.3 20.5628 4.48 18.1797 2.65L16.7638 4.08C18.778 5.53 20.144 7.85 20.2936 10.5ZM18.3293 11C18.3293 7.93 16.694 5.36 13.8423 4.68V4C13.8423 3.17 13.1742 2.5 12.3466 2.5C11.519 2.5 10.8509 3.17 10.8509 4V4.68C7.98922 5.36 6.36393 7.92 6.36393 11V16L4.36971 18V19H20.3235V18L18.3293 16V11ZM12.3466 22C12.4862 22 12.6158 21.99 12.7454 21.96C13.3936 21.82 13.922 21.38 14.1813 20.78C14.281 20.54 14.3309 20.28 14.3309 20H10.3424C10.3524 21.1 11.2398 22 12.3466 22Z" fill="black"/>
</svg>
