<svg width="25" height="24" viewBox="0 0 25 24" fill="none" xmlns="http://www.w3.org/2000/svg">
<path d="M15.9953 14H15.2076L14.9284 13.73C15.9055 12.59 16.4938 11.11 16.4938 9.5C16.4938 5.91 13.5922 3 10.0126 3C6.43297 3 3.53137 5.91 3.53137 9.5C3.53137 13.09 6.43297 16 10.0126 16C11.6179 16 13.0937 15.41 14.2304 14.43L14.4996 14.71V15.5L19.4852 20.49L20.9709 19L15.9953 14ZM10.0126 14C7.52979 14 5.5256 11.99 5.5256 9.5C5.5256 7.01 7.52979 5 10.0126 5C12.4954 5 14.4996 7.01 14.4996 9.5C14.4996 11.99 12.4954 14 10.0126 14Z" fill="black"/>
</svg>
